<?xml version="1.0" encoding="UTF-8" standalone="no"?>
<!DOCTYPE svg PUBLIC "-//W3C//DTD SVG 1.1//EN" "http://www.w3.org/Graphics/SVG/1.1/DTD/svg11.dtd">
<svg width="100%" height="100%" viewBox="0 0 120 120" version="1.1" xmlns="http://www.w3.org/2000/svg" xmlns:xlink="http://www.w3.org/1999/xlink" xml:space="preserve" xmlns:serif="http://www.serif.com/" style="fill-rule:evenodd;clip-rule:evenodd;stroke-linejoin:round;stroke-miterlimit:2;">
    <g transform="matrix(0.187308,0,0,0.187308,-13.8184,-14.4215)">
        <path d="M352.45,97.556C352.45,88.852 345.38,81.782 336.676,81.782C327.972,81.782 320.902,88.853 320.902,97.556C320.902,138.764 328.851,173.18 335.259,200.847C341.497,227.789 346.397,249.096 339.357,257.984C333.488,265.363 316.742,269.661 289.476,270.801C289.414,265.687 289.353,260.51 289.353,255.334L289.353,129.137C289.353,120.433 282.282,113.362 273.579,113.362C264.875,113.362 257.804,120.433 257.804,129.137L257.804,255.334C257.804,260.541 257.773,265.687 257.681,270.801C230.507,269.629 213.792,265.301 207.923,257.922C200.82,248.987 205.751,227.667 211.959,200.693C218.337,173.087 226.255,138.703 226.255,97.618C226.255,88.914 219.184,81.844 210.481,81.844C201.777,81.844 194.707,88.914 194.707,97.618C194.707,135.129 187.235,167.572 181.243,193.622C173.094,228.899 166.684,256.782 183.261,277.61C195.554,293.061 217.984,300.733 256.866,302.381C253.322,390.391 240.583,466.107 230.014,528.805C215.934,612.206 206.66,667.295 230.384,695.331C240.197,706.977 254.738,712.862 273.611,712.862C292.484,712.862 307.025,706.977 316.839,695.331C340.563,667.295 331.288,612.144 317.209,528.649C306.672,466.045 293.932,390.328 290.374,302.379C329.332,300.793 351.763,293.167 364.102,277.67C380.632,256.873 374.192,229.053 366.059,193.774C360.036,167.693 352.518,135.189 352.518,97.616L352.45,97.556ZM292.695,674.875C290.4,677.586 285.918,681.222 273.578,681.222C261.237,681.222 256.756,677.648 254.46,674.906C240.194,658.053 249.885,600.561 261.114,533.981C265.181,509.918 269.541,483.976 273.607,456.156C277.674,483.946 282.035,509.797 286.07,533.858C297.3,600.501 306.99,658.053 292.725,674.937L292.695,674.875Z" style="fill:white;fill-rule:nonzero;"/>
    </g>
    <g transform="matrix(0.187308,0,0,0.187308,-13.8184,-14.4215)">
        <path d="M601.117,528.589C588.701,455.046 573.327,363.555 573.297,255.304L573.297,97.556C573.297,90.393 568.489,84.154 561.559,82.321C554.658,80.488 547.356,83.523 543.843,89.731C480.097,201.232 448.64,371.503 447.316,378.698C446.484,383.304 447.778,388.033 450.736,391.623C453.724,395.228 458.131,397.309 462.844,397.309L533.306,397.309C527.822,446.02 520.457,489.893 513.896,528.745C499.816,612.147 490.542,667.235 514.266,695.272C524.123,706.918 538.606,712.803 557.492,712.803C576.38,712.803 590.922,706.918 600.72,695.272C624.473,667.232 615.198,612.084 601.117,528.589ZM482.16,365.727C489.986,328.786 509.981,243.087 541.747,166.433L541.747,255.304C541.747,294.293 539.774,331.112 536.601,365.727L482.1,365.727L482.16,365.727ZM576.625,674.875C574.345,677.586 569.847,681.222 557.521,681.222C545.195,681.222 540.699,677.648 538.417,674.906C524.121,658.053 533.826,600.561 545.072,533.981C549.138,509.918 553.513,483.976 557.581,456.156C561.647,483.946 566.022,509.857 570.091,533.858C581.275,600.501 590.981,658.053 576.745,674.937L576.625,674.875Z" style="fill:white;fill-rule:nonzero;"/>
    </g>
</svg>
